# xmcd
#
# Track frame offsets: 
#        150
#        16906
#        32477
#        51667
#        63883
#        79167
#        96300
#        112144
#        127494
#        143581
#
# Disc length: 2114 seconds
#
# Revision: 2
# Processed by: cddbd v1.5.2PL0 Copyright (c) Steve Scherf et al.
# Submitted via: ExactAudioCopyFreeDBPlugin 1.0
#
DISCID=8e08400a
DTITLE=Bettye LaVette - Tell Me a Lie
DYEAR=1982
DGENRE=Soul
TTITLE0=Right in the Middle (Of Falling in Love)
TTITLE1=Either Way We Lose
TTITLE2=Suspicions
TTITLE3=You Seen One, You Seen 'Em All
TTITLE4=I Heard it Through the Grapevine
TTITLE5=Tell Me a Lie
TTITLE6=I Like it Like That
TTITLE7=Before I Even Knew Your Name (I Needed You)
TTITLE8=I Can't Stop
TTITLE9=If I Were Your Woman
EXTD=YEAR: 1982
EXTT0=
EXTT1=
EXTT2=
EXTT3=
EXTT4=
EXTT5=
EXTT6=
EXTT7=
EXTT8=
EXTT9=
PLAYORDER=
